<svg width="400" height="400" viewBox="0 0 400 400" fill="none" xmlns="http://www.w3.org/2000/svg">
<rect x="3" y="3" width="394" height="394" rx="97" fill="white"/>
<rect x="3" y="3" width="394" height="394" rx="97" fill="url(#paint0_linear_2008_1702)" fill-opacity="0.2"/>
<rect x="3" y="3" width="394" height="394" rx="97" stroke="#CEE5FF" stroke-width="6"/>
<g clip-path="url(#clip0_2008_1702)">
<path d="M306.544 206.364H240.45C221.625 206.364 206.364 221.625 206.364 240.45V306.544C206.364 325.369 221.625 340.63 240.45 340.63H306.544C325.369 340.63 340.63 325.369 340.63 306.544V240.45C340.63 221.625 325.369 206.364 306.544 206.364Z" fill="#2DD0FF"/>
<path d="M340.63 91.7432V153.155C340.63 171.237 325.968 185.898 307.887 185.898H213.932C205.249 185.898 196.919 182.451 190.781 176.306L129.369 114.895C108.743 94.268 123.351 59 152.52 59H307.894C325.975 59 340.637 73.6616 340.637 91.7432H340.63Z" fill="black"/>
<path d="M185.898 213.932V307.887C185.898 325.968 171.237 340.63 153.155 340.63H91.7432C73.6616 340.63 59 325.968 59 307.887V152.514C59 123.344 94.268 108.736 114.895 129.362L176.306 190.774C182.445 196.913 185.898 205.242 185.898 213.925V213.932Z" fill="black"/>
<path d="M278.112 312V292.497H242.773V283.328L279.946 230.541H288.114V283.328H299.116V292.497H288.114V312H278.112ZM278.112 283.328V246.6L252.608 283.328H278.112Z" fill="black"/>
</g>
<defs>
<linearGradient id="paint0_linear_2008_1702" x1="200" y1="0" x2="200" y2="400" gradientUnits="userSpaceOnUse">
<stop stop-opacity="0"/>
<stop offset="1"/>
</linearGradient>
<clipPath id="clip0_2008_1702">
<rect width="281.63" height="281.63" fill="white" transform="translate(59 59)"/>
</clipPath>
</defs>
</svg>
